<svg height="512" viewBox="0 0 60 60" width="512" xmlns="http://www.w3.org/2000/svg"><path id="Shape" d="m60 28c0-1.6568542-1.3431458-3-3-3h-17.21c-.21-1.36-.42-2.7-.65-4h6.86c1.6568542 0 3-1.3431458 3-3v-15c0-1.65685425-1.3431458-3-3-3h-32c-1.6568542 0-3 1.34314575-3 3v15c0 1.6568542 1.3431458 3 3 3h6.86c-.23 1.3-.44 2.64-.65 4h-17.21c-1.65685425 0-3 1.3431458-3 3s1.34314575 3 3 3v23c-1.65685425 0-3 1.3431458-3 3s1.34314575 3 3 3h6c1.6568542 0 3-1.3431458 3-3s-1.3431458-3-3-3v-23h10.44c0 .33-.07.67-.11 1h-2.33c-1.1045695 0-2 .8954305-2 2v2c0 1.1045695.8954305 2 2 2h2c0 4.29 3.83 5.56 8 5.89v1.11h-4c-2.7614237 0-5 2.2385763-5 5v3.38c-1.4182283 1.6081197-1.3162204 4.0484851.2312657 5.5326372s3.9899825 1.4841521 5.5374686 0 1.649494-3.9245175.2312657-5.5326372v-2.38h12v2.38c-1.4182283 1.6081197-1.3162204 4.0484851.2312657 5.5326372s3.9899825 1.4841521 5.5374686 0 1.649494-3.9245175.2312657-5.5326372v-3.38c0-2.7614237-2.2385763-5-5-5h-4v-1.11c4.17-.33 8-1.6 8-5.89h2c1.1045695 0 2-.8954305 2-2v-2c0-1.1045695-.8954305-2-2-2h-2.33c0-.33-.07-.67-.11-1h10.44v23c-1.6568542 0-3 1.3431458-3 3s1.3431458 3 3 3h6c1.6568542 0 3-1.3431458 3-3s-1.3431458-3-3-3v-23c1.6568542 0 3-1.3431458 3-3zm-14-9h-7.2c-.13-.68-.25-1.36-.37-2h8.57v1c0 .5522847-.4477153 1-1 1zm-32-17h32c.5522847 0 1 .44771525 1 1v12h-9c-.14-.71-.27-1.38-.4-2-.4752686-2.3283313-2.5236569-4.00048501-4.9-4h-5.5c-2.3763431-.00048501-4.4247314 1.6716687-4.9 4-.13.62-.26 1.29-.4 2h-8.9v-12c0-.55228475.4477153-1 1-1zm0 17c-.5522847 0-1-.4477153-1-1v-1h8.57c-.12.64-.24 1.32-.37 2zm-4 38c0 .5522847-.44771525 1-1 1h-6c-.55228475 0-1-.4477153-1-1s.44771525-1 1-1h6c.55228475 0 1 .4477153 1 1zm-3-3h-2v-23h2zm-4-25c-.55228475 0-1-.4477153-1-1s.44771525-1 1-1h16.93c-.09.67-.18 1.34-.26 2zm14 7v-2h2.17c-.05.69-.09 1.35-.12 2zm4 22c-1.1045695 0-2-.8954305-2-2s.8954305-2 2-2 2 .8954305 2 2-.8954305 2-2 2zm1-7v1.14c-.653129-.1900012-1.346871-.1900012-2 0v-2.14c0-1.6568542 1.3431458-3 3-3h4v2h-3c-1.1045695 0-2 .8954305-2 2zm17 7c-1.1045695 0-2-.8954305-2-2s.8954305-2 2-2 2 .8954305 2 2-.8954305 2-2 2zm-2-11c1.6568542 0 3 1.3431458 3 3v2.14c-.653129-.1900012-1.346871-.1900012-2 0v-1.14c0-1.1045695-.8954305-2-2-2h-3v-2zm-6 2h-2v-5h2zm-1-7c-9 0-9-2.6-9-4 0-7.18 2.07-18.5 3.31-24.6.2851611-1.3969988 1.5141941-2.400291 2.94-2.4h5.5c1.4258059-.000291 2.6548389 1.0030012 2.94 2.4 1.24 6.1 3.31 17.42 3.31 24.6 0 1.4 0 4-9 4zm13-8v2h-2c0-.65-.07-1.31-.12-2zm-2.93-7h16.93c.5522847 0 1 .4477153 1 1s-.4477153 1-1 1h-16.67c-.08-.66-.17-1.33-.26-2zm17.93 30c0 .5522847-.4477153 1-1 1h-6c-.5522847 0-1-.4477153-1-1s.4477153-1 1-1h6c.5522847 0 1 .4477153 1 1zm-3-3h-2v-23h2z"/></svg>