<svg id="Layer_5" enable-background="new 0 0 64 64" height="512" viewBox="0 0 64 64" width="512" xmlns="http://www.w3.org/2000/svg"><path d="m32 47c11.028 0 20-8.972 20-20s-8.972-20-20-20-20 8.972-20 20 8.972 20 20 20zm0-2c-5.881 0-11.097-2.848-14.384-7.224 1.025-3.5 3.244-6.412 6.154-8.32l2.685 9.26 5.545-4.435 5.544 4.435 2.685-9.258c2.911 1.908 5.132 4.818 6.157 8.316-3.287 4.376-8.504 7.226-14.386 7.226zm-6-26c0-3.309 2.691-6 6-6s6 2.691 6 6-2.691 6-6 6-6-2.691-6-6zm6 12.299-2.911-4.005c.947-.186 1.918-.294 2.912-.294.993 0 1.964.108 2.909.295zm4.978-3.448c.499.176.983.384 1.458.61l-1.98 6.823-3.086-2.469zm-9.957-.001 3.609 4.965-3.086 2.469-1.981-6.824c.475-.226.959-.434 1.458-.61zm4.979-18.85c9.925 0 18 8.075 18 18 0 3.14-.813 6.093-2.232 8.666-1.99-4.963-6.192-8.661-11.272-10.053 2.113-1.442 3.504-3.868 3.504-6.613 0-4.411-3.589-8-8-8s-8 3.589-8 8c0 2.745 1.391 5.171 3.504 6.612-5.082 1.392-9.281 5.09-11.27 10.055-1.421-2.573-2.234-5.526-2.234-8.667 0-9.925 8.075-18 18-18z"/><path d="m45.72 29.802 1.961.396c.143-.707.238-1.425.284-2.134l-1.996-.129c-.04.62-.124 1.248-.249 1.867z"/><path d="m47.965 25.935c-.203-3.099-1.298-6.051-3.165-8.536l-1.6 1.201c1.634 2.174 2.591 4.756 2.769 7.466z"/><path d="m23.601 15.799-1.203-1.598c-.526.396-1.034.83-1.509 1.287l1.389 1.439c.415-.401.86-.781 1.323-1.128z"/><path d="m18.503 23.266c.166-.6.373-1.191.615-1.759l-1.838-.787c-.278.65-.516 1.328-.705 2.015z"/><path d="m21.024 18.308-1.568-1.242c-.441.559-.849 1.148-1.21 1.755l1.719 1.023c.315-.532.672-1.048 1.059-1.536z"/><path d="m31 41h2v2h-2z"/><path d="m31 37h2v2h-2z"/><path d="m63.081 51h-13.081v-4h-1.863c.567-.879.889-1.907.894-2.97 1.921-.008 3.75-1.023 4.736-2.731l1.5-2.598c.986-1.708.95-3.8-.003-5.468 1.66-.967 2.736-2.76 2.736-4.733v-3c0-1.973-1.076-3.766-2.736-4.733.953-1.668.989-3.76.003-5.468l-1.5-2.598c-.986-1.708-2.814-2.724-4.736-2.731-.008-1.921-1.023-3.75-2.731-4.736l-2.598-1.5c-1.708-.986-3.8-.95-5.468.003-.968-1.661-2.761-2.737-4.734-2.737h-3c-1.973 0-3.766 1.076-4.733 2.736-1.669-.953-3.76-.989-5.468-.003l-2.598 1.5c-1.708.987-2.723 2.816-2.731 4.737-1.921.008-3.75 1.023-4.736 2.731l-1.5 2.598c-.986 1.708-.95 3.8.003 5.468-1.661.967-2.737 2.76-2.737 4.733v3c0 1.973 1.076 3.766 2.736 4.733-.953 1.668-.989 3.76-.003 5.468l1.5 2.598c.986 1.708 2.814 2.724 4.736 2.731.004 1.062.326 2.091.894 2.97h-1.863v4h-13.081l4.801 6-4.801 6h23.081v-6h16v6h23.081l-4.801-6zm-44.976-2 2.193 1.267c1.708.985 3.799.95 5.467-.003.969 1.66 2.762 2.736 4.735 2.736h3c1.973 0 3.766-1.076 4.733-2.736 1.668.953 3.759.99 5.468.003l2.194-1.267h2.105v6h-32v-6zm-6.139-8.701-1.5-2.598c-.776-1.345-.553-3.065.544-4.186l1.182-1.207-1.627-.455c-1.51-.421-2.565-1.8-2.565-3.353v-3c0-1.553 1.055-2.932 2.564-3.354l1.627-.455-1.182-1.207c-1.097-1.12-1.32-2.841-.544-4.186l1.5-2.598c.775-1.344 2.38-2.011 3.896-1.622l1.638.42-.42-1.638c-.39-1.518.277-3.119 1.622-3.896l2.598-1.5c1.344-.777 3.063-.554 4.186.544l1.207 1.182.455-1.627c.421-1.508 1.8-2.563 3.353-2.563h3c1.553 0 2.932 1.055 3.354 2.564l.455 1.627 1.207-1.182c1.121-1.097 2.841-1.322 4.186-.544l2.598 1.5c1.345.776 2.012 2.378 1.622 3.896l-.42 1.638 1.638-.42c1.516-.39 3.119.278 3.896 1.622l1.5 2.598c.776 1.345.553 3.065-.544 4.186l-1.182 1.207 1.627.455c1.508.421 2.563 1.8 2.563 3.353v3c0 1.553-1.055 2.932-2.564 3.354l-1.627.455 1.182 1.207c1.097 1.12 1.32 2.841.544 4.186l-1.5 2.598c-.775 1.345-2.379 2.01-3.896 1.622l-1.638-.42.42 1.638c.39 1.518-.277 3.119-1.622 3.896l-2.598 1.5c-1.345.777-3.065.553-4.186-.544l-1.207-1.182-.455 1.627c-.421 1.508-1.8 2.563-3.353 2.563h-3c-1.553 0-2.932-1.055-3.354-2.564l-.455-1.627-1.207 1.182c-1.119 1.097-2.841 1.321-4.186.544l-2.598-1.5c-1.345-.776-2.012-2.378-1.622-3.896l.42-1.638-1.638.42c-1.515.388-3.119-.277-3.894-1.622zm-3.686 16.701-3.199-4h8.919v3.5l6 4.5h-14.919zm13.72 3-4-3h4zm24-3-4 3v-3zm12.919 4h-14.919l6-4.5v-3.5h8.919l-3.199 4z"/></svg>